<?xml version="1.0" standalone="no"?>
<!DOCTYPE svg PUBLIC "-//W3C//DTD SVG 20010904//EN"
 "http://www.w3.org/TR/2001/REC-SVG-20010904/DTD/svg10.dtd">
<svg version="1.0" xmlns="http://www.w3.org/2000/svg"
 width="500.000000pt" height="500.000000pt" viewBox="0 0 500.000000 500.000000"
 preserveAspectRatio="xMidYMid meet">

<g transform="translate(0.000000,500.000000) scale(0.100000,-0.100000)"
fill="#000000" stroke="none">
<path d="M2170 3580 c8 -5 20 -10 25 -10 6 0 3 5 -5 10 -8 5 -19 10 -25 10 -5
0 -3 -5 5 -10z"/>
<path d="M2778 3410 c-114 -44 -167 -83 -193 -139 -18 -40 -18 -42 1 -77 12
-23 20 -30 22 -19 2 8 8 13 13 10 5 -4 9 0 9 8 0 22 23 27 45 11 55 -41 130
16 105 80 -8 23 -7 25 21 24 42 -1 45 7 16 45 -24 32 -25 34 -6 45 10 7 24 12
30 12 6 0 22 9 36 20 36 28 13 23 -99 -20z"/>
<path d="M2088 3410 l44 -20 -27 -32 c-20 -23 -23 -33 -14 -36 8 -2 21 -6 29
-9 8 -4 18 -6 22 -5 4 1 2 -12 -4 -29 -20 -59 47 -109 104 -78 37 21 48 19 61
-8 10 -23 12 -24 24 -7 18 24 16 70 -3 103 -24 40 -98 86 -186 116 -91 30
-109 32 -50 5z"/>
<path d="M2442 3408 c2 -5 8 -9 13 -9 5 0 11 4 13 9 1 5 -4 9 -13 9 -9 0 -14
-4 -13 -9z"/>
<path d="M2430 3139 c-60 -24 -95 -92 -71 -137 10 -18 6 -25 -25 -48 l-36 -28
38 -13 c21 -7 45 -20 54 -28 9 -8 24 -15 33 -15 9 0 21 -8 26 -17 10 -17 12
-17 27 2 8 11 22 19 31 17 8 -2 12 1 9 6 -3 5 6 8 19 6 19 -2 25 2 25 17 0 11
4 18 9 14 6 -3 14 2 19 12 8 13 4 21 -14 36 -20 15 -22 22 -13 39 17 31 2 84
-32 112 -17 14 -34 26 -39 26 -5 0 -14 2 -22 4 -7 3 -24 0 -38 -5z"/>
<path d="M3052 3071 c-4 -28 -71 -97 -128 -131 -54 -33 -64 -35 -144 -35 -47
0 -101 3 -120 7 -19 4 -29 5 -23 2 9 -4 5 -20 -14 -57 -62 -122 -75 -201 -49
-287 20 -68 70 -173 89 -189 9 -7 17 -18 17 -23 0 -9 49 -55 75 -70 6 -4 22
-9 36 -12 56 -10 78 -19 83 -32 3 -8 12 -14 21 -14 8 0 20 -11 25 -25 9 -24
32 -36 27 -14 -1 6 4 14 11 16 6 3 12 0 12 -6 0 -6 17 -5 48 4 60 17 244 43
325 44 l29 1 -50 63 c-27 34 -79 104 -116 156 -36 51 -66 92 -66 89 0 -2 13
-44 30 -93 16 -49 28 -90 26 -92 -8 -9 -132 73 -176 116 -84 81 -105 213 -50
303 17 26 30 60 30 75 0 16 12 37 30 55 29 28 31 32 27 96 -2 37 -4 61 -5 53z
m-187 -371 c-8 -106 -13 -124 -29 -111 -7 6 -16 8 -20 4 -4 -4 -4 0 0 10 4 13
1 17 -14 17 -20 0 -36 -29 -33 -60 1 -8 -12 8 -28 35 -26 42 -31 60 -31 116 0
76 7 83 63 64 20 -7 37 -9 37 -5 0 4 10 12 23 17 32 15 38 -1 32 -87z"/>
<path d="M2790 2639 c0 -5 5 -7 10 -4 6 3 10 8 10 11 0 2 -4 4 -10 4 -5 0 -10
-5 -10 -11z"/>
<path d="M2269 2126 c-38 -65 -42 -80 -22 -70 10 4 56 9 103 12 88 4 100 10
100 50 0 17 -6 22 -27 22 -16 0 -51 6 -79 14 l-52 14 -23 -42z"/>
<path d="M2610 2131 c-19 -3 -35 -12 -34 -18 1 -7 2 -22 3 -33 1 -17 8 -20 50
-20 28 0 53 -5 56 -10 4 -6 12 -7 18 -3 19 11 77 14 77 3 0 -6 5 -10 10 -10 7
0 7 6 1 18 -5 9 -16 32 -23 50 -12 31 -15 32 -68 31 -30 -1 -71 -5 -90 -8z"/>
</g>
</svg>
